#!OML:ASF H:\Terrain\Patient Classification 1\Animal1\Tuesday\Animal1.ASF
:FULLY-SPECIFIED
:DEGREES
1804
root 5.59132 15.9406 -17.9362 15.8732 -57.3329 -1.89016
lowerback -9.35103 6.89748 4.39375
upperback -9.34109 8.66289 -1.05184
thorax -3.78429 3.98684 -2.94746
lowerneck -6.55963 10.6371 1.48991
upperneck 21.0049 11.8025 12.9465
head 6.76774 6.8744 4.79355
rclavicle -7.80975e-014 -6.0033e-014
rhumerus -35.8551 62.329 -97.9447
rradius 30.0993
rwrist -43.8646
rhand -8.44657 19.4696
rfingers 7.12502
rthumb 17.4791 -9.76462
lclavicle -7.80975e-014 -6.0033e-014
lhumerus -83.6482 -28.6789 97.4207
lradius 36.1926
lwrist 16.7818
lhand 29.6477 26.9971
lfingers 7.12502
lthumb 53.3899 46.2394
rfemur 3.55064 30.0828 29.268
rtibia 3.18055e-014
rfoot -8.97889 -24.4883
rtoes 6.04468
lfemur -53.5471 -46.6695 20.4916
ltibia 20.2806
lfoot -19.2194 36.0276
ltoes 36.4351
1805
root 5.59156 15.9407 -17.9346 15.7345 -57.3344 -1.69047
lowerback -9.33199 6.91227 4.35598
upperback -9.34476 8.68516 -1.12324
thorax -3.79079 3.99805 -3.00101
lowerneck -6.48005 10.6016 1.52175
upperneck 20.9126 11.7646 12.9189
head 6.73062 6.85186 4.76689
rclavicle 2.60656e-014 1.25234e-014
rhumerus -35.7137 62.3195 -97.851
rradius 30.0711
rwrist -44.0416
rhand -8.18487 19.6599
rfingers 7.12502
rthumb 17.7309 -9.55173
lclavicle 2.60656e-014 1.25234e-014
lhumerus -83.7017 -28.7776 97.5226
lradius 36.1499
lwrist 16.7643
lhand 29.8015 27.0951
lfingers 7.12502
lthumb 53.5284 46.2471
rfemur 3.51356 30.004 29.1254
rtibia 1.43125e-014
rfoot -8.90583 -24.5399
rtoes 5.59661
lfemur -53.1075 -46.1718 19.7425
ltibia 20.2004
lfoot -18.6308 35.5928
ltoes 36.447
1806
root 5.59161 15.9412 -17.9357 15.7115 -57.3269 -1.6679
lowerback -9.31899 6.90874 4.39676
upperback -9.25175 8.68015 -1.17021
thorax -3.6856 3.99815 -3.06543
lowerneck -6.67898 10.6167 1.56954
upperneck 20.8857 11.7708 12.9197
head 6.76061 6.86213 4.77304
rclavicle 9.62366e-014 2.26615e-014
rhumerus -35.064 62.2093 -97.3828
rradius 29.9693
rwrist -44.0651
rhand -7.99705 19.8893
rfingers 7.12502
rthumb 17.9117 -9.30587
lclavicle 9.62366e-014 2.26615e-014
lhumerus -83.5608 -28.8099 97.3915
lradius 36.1443
lwrist 16.633
lhand 29.8456 27.1695
lfingers 7.12502
lthumb 53.5681 46.2954
rfemur 3.52522 29.937 29.1129
rtibia -6.36111e-015
rfoot -9.06143 -24.4294
rtoes 6.04567
lfemur -52.6133 -45.6488 19.0672
ltibia 20.0968
lfoot -17.4669 35.3561
ltoes 35.3871
1807
root 5.59248 15.9411 -17.9373 15.5949 -57.2979 -1.64444
lowerback -9.12801 6.96758 4.46093
upperback -9.15674 8.76832 -1.30994
thorax -3.64984 4.04078 -3.25073
lowerneck -7.08332 10.5428 1.79279
upperneck 20.9668 11.6024 12.9386
head 6.88572 6.80964 4.77155
rclavicle -3.04141e-014 1.50082e-014
rhumerus -34.0845 61.4718 -96.6185
rradius 29.7535
rwrist -43.6598
rhand -7.85913 20.0462
rfingers 7.12502
rthumb 18.0444 -9.1368
lclavicle -3.04141e-014 1.50082e-014
lhumerus -83.4812 -29.1244 97.2831
lradius 36.161
lwrist 16.4806
lhand 29.8739 27.2339
lfingers 7.12502
lthumb 53.5936 46.343
rfemur 3.65008 29.8346 29.1645
rtibia -2.54444e-014
rfoot -9.28303 -24.2689
rtoes 6.53363
lfemur -52.0544 -45.1849 18.3266
ltibia 20.0508
lfoot -16.2989 34.9997
ltoes 33.8432
1808
root 5.59452 15.9422 -17.9363 15.4283 -57.2181 -1.53033
lowerback -8.94038 7.01274 4.50752
upperback -9.12607 8.83819 -1.43793
thorax -3.68668 4.07133 -3.42122
lowerneck -7.11713 10.4313 1.92908
upperneck 20.8064 11.4373 12.9352
head 6.86098 6.73617 4.73393
rclavicle 4.29251e-014 1.22253e-014
rhumerus -33.4815 60.7809 -96.1411
rradius 29.5459
rwrist -43.2706
rhand -7.88933 20.1969
rfingers 7.12502
rthumb 18.0153 -8.98874
lclavicle 4.29251e-014 1.22253e-014
lhumerus -83.5377 -29.4777 97.3998
lradius 36.1217
lwrist 16.4591
lhand 30.0055 27.2811
lfingers 7.12502
lthumb 53.7119 46.312
rfemur 3.72935 29.6752 29.1489
rtibia -7.95139e-015
rfoot -9.32618 -24.2048
rtoes 6.64371
lfemur -51.6027 -44.721 17.5612
ltibia 20.1003
lfoot -15.3704 34.4723
ltoes 32.1653
1809
root 5.59428 15.9445 -17.9349 15.4615 -57.1633 -1.59264
lowerback -8.90411 6.84 4.63185
upperback -9.09144 8.6062 -1.29128
thorax -3.69541 3.95229 -3.3591
lowerneck -6.8074 10.5814 1.66003
upperneck 20.6428 11.7154 12.9434
head 6.71407 6.84016 4.75836
rclavicle -3.99806e-014 -5.1684e-015
rhumerus -33.6284 61.3787 -96.3941
rradius 29.6121
rwrist -43.39
rhand -8.07422 20.1773
rfingers 7.12502
rthumb 17.8374 -9.02463
lclavicle -3.99806e-014 -5.1684e-015
lhumerus -83.5823 -29.0203 97.4742
lradius 36.0485
lwrist 16.5582
lhand 29.8594 27.3157
lfingers 7.12502
lthumb 53.5805 46.4334
rfemur 3.75229 29.5728 29.2022
rtibia 0
rfoot -9.28508 -24.2307
rtoes 6.44627
lfemur -51.3484 -44.3931 17.1414
ltibia 20.194
lfoot -14.4666 34.2362
ltoes 31.1731
